<mxfile host="app.diagrams.net" modified="2022-10-03T09:09:04.678Z" agent="5.0 (Windows NT 10.0; Win64; x64) AppleWebKit/537.36 (KHTML, like Gecko) Chrome/106.0.0.0 Safari/537.36" etag="xz63sARFc-RiUA2ZrZBk" version="20.4.0" type="github">
  <diagram id="R2lEEEUBdFMjLlhIrx00" name="Page-1">
    <mxGraphModel dx="2447" dy="891" grid="1" gridSize="10" guides="1" tooltips="1" connect="1" arrows="1" fold="1" page="1" pageScale="1" pageWidth="850" pageHeight="1100" background="#F1FAEE" math="0" shadow="1" extFonts="Permanent Marker^https://fonts.googleapis.com/css?family=Permanent+Marker">
      <root>
        <mxCell id="0" />
        <mxCell id="1" parent="0" />
        <mxCell id="kFy7uXsL30mzQ4tsva0F-8" style="edgeStyle=orthogonalEdgeStyle;rounded=1;orthogonalLoop=1;jettySize=auto;html=1;exitX=1;exitY=0.5;exitDx=0;exitDy=0;labelBackgroundColor=#F1FAEE;strokeColor=#457B9D;fontColor=#1D3557;" edge="1" parent="1" source="kFy7uXsL30mzQ4tsva0F-1" target="kFy7uXsL30mzQ4tsva0F-5">
          <mxGeometry relative="1" as="geometry" />
        </mxCell>
        <mxCell id="kFy7uXsL30mzQ4tsva0F-59" style="edgeStyle=orthogonalEdgeStyle;rounded=0;orthogonalLoop=1;jettySize=auto;html=1;exitX=0.75;exitY=0;exitDx=0;exitDy=0;entryX=0.33;entryY=1.01;entryDx=0;entryDy=0;entryPerimeter=0;strokeColor=#457B9D;fontColor=#1D3557;fillColor=#A8DADC;" edge="1" parent="1" source="kFy7uXsL30mzQ4tsva0F-1" target="kFy7uXsL30mzQ4tsva0F-49">
          <mxGeometry relative="1" as="geometry" />
        </mxCell>
        <mxCell id="kFy7uXsL30mzQ4tsva0F-62" style="edgeStyle=orthogonalEdgeStyle;rounded=0;orthogonalLoop=1;jettySize=auto;html=1;exitX=0.75;exitY=1;exitDx=0;exitDy=0;entryX=0.167;entryY=0;entryDx=0;entryDy=0;entryPerimeter=0;strokeColor=#457B9D;fontColor=#1D3557;fillColor=#A8DADC;" edge="1" parent="1" source="kFy7uXsL30mzQ4tsva0F-1" target="kFy7uXsL30mzQ4tsva0F-56">
          <mxGeometry relative="1" as="geometry" />
        </mxCell>
        <mxCell id="kFy7uXsL30mzQ4tsva0F-1" value="Teacher" style="rounded=1;whiteSpace=wrap;html=1;fillColor=#A8DADC;strokeColor=#457B9D;fontColor=#1D3557;" vertex="1" parent="1">
          <mxGeometry x="-240" y="170" width="120" height="60" as="geometry" />
        </mxCell>
        <mxCell id="kFy7uXsL30mzQ4tsva0F-41" style="edgeStyle=orthogonalEdgeStyle;orthogonalLoop=1;jettySize=auto;html=1;exitX=0.5;exitY=0;exitDx=0;exitDy=0;entryX=0.375;entryY=1;entryDx=0;entryDy=0;entryPerimeter=0;labelBackgroundColor=#F1FAEE;strokeColor=#457B9D;fontColor=#1D3557;" edge="1" parent="1" source="kFy7uXsL30mzQ4tsva0F-2" target="kFy7uXsL30mzQ4tsva0F-37">
          <mxGeometry relative="1" as="geometry" />
        </mxCell>
        <mxCell id="kFy7uXsL30mzQ4tsva0F-2" value="Notice" style="rounded=1;whiteSpace=wrap;html=1;fillColor=#A8DADC;strokeColor=#457B9D;fontColor=#1D3557;" vertex="1" parent="1">
          <mxGeometry x="365" y="170" width="120" height="60" as="geometry" />
        </mxCell>
        <mxCell id="kFy7uXsL30mzQ4tsva0F-10" style="edgeStyle=orthogonalEdgeStyle;rounded=1;orthogonalLoop=1;jettySize=auto;html=1;exitX=0;exitY=0.5;exitDx=0;exitDy=0;entryX=1;entryY=0.5;entryDx=0;entryDy=0;labelBackgroundColor=#F1FAEE;strokeColor=#457B9D;fontColor=#1D3557;" edge="1" parent="1" source="kFy7uXsL30mzQ4tsva0F-3" target="kFy7uXsL30mzQ4tsva0F-6">
          <mxGeometry relative="1" as="geometry" />
        </mxCell>
        <mxCell id="kFy7uXsL30mzQ4tsva0F-29" style="edgeStyle=orthogonalEdgeStyle;orthogonalLoop=1;jettySize=auto;html=1;exitX=0.5;exitY=0;exitDx=0;exitDy=0;entryX=0.5;entryY=1;entryDx=0;entryDy=0;labelBackgroundColor=#F1FAEE;strokeColor=#457B9D;fontColor=#1D3557;" edge="1" parent="1" source="kFy7uXsL30mzQ4tsva0F-3" target="kFy7uXsL30mzQ4tsva0F-15">
          <mxGeometry relative="1" as="geometry" />
        </mxCell>
        <mxCell id="kFy7uXsL30mzQ4tsva0F-30" style="edgeStyle=orthogonalEdgeStyle;orthogonalLoop=1;jettySize=auto;html=1;exitX=1;exitY=0.5;exitDx=0;exitDy=0;labelBackgroundColor=#F1FAEE;strokeColor=#457B9D;fontColor=#1D3557;" edge="1" parent="1" source="kFy7uXsL30mzQ4tsva0F-3" target="kFy7uXsL30mzQ4tsva0F-16">
          <mxGeometry relative="1" as="geometry" />
        </mxCell>
        <mxCell id="kFy7uXsL30mzQ4tsva0F-32" style="edgeStyle=orthogonalEdgeStyle;orthogonalLoop=1;jettySize=auto;html=1;exitX=0.5;exitY=1;exitDx=0;exitDy=0;entryX=0.5;entryY=0;entryDx=0;entryDy=0;labelBackgroundColor=#F1FAEE;strokeColor=#457B9D;fontColor=#1D3557;" edge="1" parent="1" source="kFy7uXsL30mzQ4tsva0F-3" target="kFy7uXsL30mzQ4tsva0F-17">
          <mxGeometry relative="1" as="geometry" />
        </mxCell>
        <mxCell id="kFy7uXsL30mzQ4tsva0F-3" value="Admin" style="rounded=1;whiteSpace=wrap;html=1;fillColor=#A8DADC;strokeColor=#457B9D;fontColor=#1D3557;" vertex="1" parent="1">
          <mxGeometry x="1000" y="170" width="120" height="60" as="geometry" />
        </mxCell>
        <mxCell id="kFy7uXsL30mzQ4tsva0F-12" style="edgeStyle=orthogonalEdgeStyle;rounded=1;orthogonalLoop=1;jettySize=auto;html=1;exitX=0.5;exitY=0;exitDx=0;exitDy=0;entryX=0.5;entryY=1;entryDx=0;entryDy=0;labelBackgroundColor=#F1FAEE;strokeColor=#457B9D;fontColor=#1D3557;" edge="1" parent="1" source="kFy7uXsL30mzQ4tsva0F-4" target="kFy7uXsL30mzQ4tsva0F-7">
          <mxGeometry relative="1" as="geometry" />
        </mxCell>
        <mxCell id="kFy7uXsL30mzQ4tsva0F-4" value="Student" style="rounded=1;whiteSpace=wrap;html=1;fillColor=#A8DADC;strokeColor=#457B9D;fontColor=#1D3557;" vertex="1" parent="1">
          <mxGeometry x="365" y="430" width="120" height="60" as="geometry" />
        </mxCell>
        <mxCell id="kFy7uXsL30mzQ4tsva0F-9" style="edgeStyle=orthogonalEdgeStyle;rounded=1;orthogonalLoop=1;jettySize=auto;html=1;exitX=1;exitY=0.5;exitDx=0;exitDy=0;entryX=0;entryY=0.5;entryDx=0;entryDy=0;labelBackgroundColor=#F1FAEE;strokeColor=#457B9D;fontColor=#1D3557;" edge="1" parent="1" source="kFy7uXsL30mzQ4tsva0F-5" target="kFy7uXsL30mzQ4tsva0F-2">
          <mxGeometry relative="1" as="geometry" />
        </mxCell>
        <mxCell id="kFy7uXsL30mzQ4tsva0F-5" value="Mengumumkan" style="rhombus;whiteSpace=wrap;html=1;fillColor=#A8DADC;strokeColor=#457B9D;fontColor=#1D3557;rounded=1;" vertex="1" parent="1">
          <mxGeometry x="110" y="160" width="120" height="80" as="geometry" />
        </mxCell>
        <mxCell id="kFy7uXsL30mzQ4tsva0F-11" style="edgeStyle=orthogonalEdgeStyle;rounded=1;orthogonalLoop=1;jettySize=auto;html=1;exitX=0;exitY=0.5;exitDx=0;exitDy=0;entryX=1;entryY=0.5;entryDx=0;entryDy=0;labelBackgroundColor=#F1FAEE;strokeColor=#457B9D;fontColor=#1D3557;" edge="1" parent="1" source="kFy7uXsL30mzQ4tsva0F-6" target="kFy7uXsL30mzQ4tsva0F-2">
          <mxGeometry relative="1" as="geometry" />
        </mxCell>
        <mxCell id="kFy7uXsL30mzQ4tsva0F-6" value="Mengumumkan" style="rhombus;whiteSpace=wrap;html=1;fillColor=#A8DADC;strokeColor=#457B9D;fontColor=#1D3557;rounded=1;" vertex="1" parent="1">
          <mxGeometry x="680" y="160" width="120" height="80" as="geometry" />
        </mxCell>
        <mxCell id="kFy7uXsL30mzQ4tsva0F-13" style="edgeStyle=orthogonalEdgeStyle;rounded=1;orthogonalLoop=1;jettySize=auto;html=1;exitX=0.5;exitY=0;exitDx=0;exitDy=0;entryX=0.5;entryY=1;entryDx=0;entryDy=0;labelBackgroundColor=#F1FAEE;strokeColor=#457B9D;fontColor=#1D3557;" edge="1" parent="1" source="kFy7uXsL30mzQ4tsva0F-7" target="kFy7uXsL30mzQ4tsva0F-2">
          <mxGeometry relative="1" as="geometry" />
        </mxCell>
        <mxCell id="kFy7uXsL30mzQ4tsva0F-7" value="Melihat" style="rhombus;whiteSpace=wrap;html=1;fillColor=#A8DADC;strokeColor=#457B9D;fontColor=#1D3557;rounded=1;" vertex="1" parent="1">
          <mxGeometry x="385" y="290" width="80" height="80" as="geometry" />
        </mxCell>
        <mxCell id="kFy7uXsL30mzQ4tsva0F-14" value="ID" style="rounded=1;whiteSpace=wrap;html=1;fillColor=#A8DADC;strokeColor=#457B9D;fontColor=#1D3557;" vertex="1" parent="1">
          <mxGeometry x="850" y="80" width="120" height="60" as="geometry" />
        </mxCell>
        <mxCell id="kFy7uXsL30mzQ4tsva0F-15" value="AdminName" style="rounded=1;whiteSpace=wrap;html=1;fillColor=#A8DADC;strokeColor=#457B9D;fontColor=#1D3557;" vertex="1" parent="1">
          <mxGeometry x="1000" y="80" width="120" height="60" as="geometry" />
        </mxCell>
        <mxCell id="kFy7uXsL30mzQ4tsva0F-16" value="MobileNumber" style="rounded=1;whiteSpace=wrap;html=1;fillColor=#A8DADC;strokeColor=#457B9D;fontColor=#1D3557;" vertex="1" parent="1">
          <mxGeometry x="1160" y="170" width="120" height="60" as="geometry" />
        </mxCell>
        <mxCell id="kFy7uXsL30mzQ4tsva0F-17" value="Password" style="rounded=1;whiteSpace=wrap;html=1;fillColor=#A8DADC;strokeColor=#457B9D;fontColor=#1D3557;" vertex="1" parent="1">
          <mxGeometry x="1000" y="260" width="120" height="60" as="geometry" />
        </mxCell>
        <mxCell id="kFy7uXsL30mzQ4tsva0F-18" value="AdminRegDate" style="rounded=1;whiteSpace=wrap;html=1;fillColor=#A8DADC;strokeColor=#457B9D;fontColor=#1D3557;" vertex="1" parent="1">
          <mxGeometry x="850" y="260" width="120" height="60" as="geometry" />
        </mxCell>
        <mxCell id="kFy7uXsL30mzQ4tsva0F-19" value="UserName" style="rounded=1;whiteSpace=wrap;html=1;fillColor=#A8DADC;strokeColor=#457B9D;fontColor=#1D3557;" vertex="1" parent="1">
          <mxGeometry x="1160" y="80" width="120" height="60" as="geometry" />
        </mxCell>
        <mxCell id="kFy7uXsL30mzQ4tsva0F-20" value="Email" style="rounded=1;whiteSpace=wrap;html=1;fillColor=#A8DADC;strokeColor=#457B9D;fontColor=#1D3557;" vertex="1" parent="1">
          <mxGeometry x="1160" y="260" width="120" height="60" as="geometry" />
        </mxCell>
        <mxCell id="kFy7uXsL30mzQ4tsva0F-21" style="edgeStyle=orthogonalEdgeStyle;rounded=1;orthogonalLoop=1;jettySize=auto;html=1;exitX=0.5;exitY=1;exitDx=0;exitDy=0;labelBackgroundColor=#F1FAEE;strokeColor=#457B9D;fontColor=#1D3557;" edge="1" parent="1" source="kFy7uXsL30mzQ4tsva0F-16" target="kFy7uXsL30mzQ4tsva0F-16">
          <mxGeometry relative="1" as="geometry" />
        </mxCell>
        <mxCell id="kFy7uXsL30mzQ4tsva0F-28" value="" style="endArrow=classic;html=1;entryX=0;entryY=1;entryDx=0;entryDy=0;labelBackgroundColor=#F1FAEE;strokeColor=#457B9D;fontColor=#1D3557;" edge="1" parent="1" source="kFy7uXsL30mzQ4tsva0F-3" target="kFy7uXsL30mzQ4tsva0F-19">
          <mxGeometry width="50" height="50" relative="1" as="geometry">
            <mxPoint x="1120" y="170" as="sourcePoint" />
            <mxPoint x="1170" y="120" as="targetPoint" />
          </mxGeometry>
        </mxCell>
        <mxCell id="kFy7uXsL30mzQ4tsva0F-33" value="" style="endArrow=classic;html=1;entryX=0;entryY=0;entryDx=0;entryDy=0;exitX=0.986;exitY=0.951;exitDx=0;exitDy=0;exitPerimeter=0;labelBackgroundColor=#F1FAEE;strokeColor=#457B9D;fontColor=#1D3557;" edge="1" parent="1" source="kFy7uXsL30mzQ4tsva0F-3" target="kFy7uXsL30mzQ4tsva0F-20">
          <mxGeometry width="50" height="50" relative="1" as="geometry">
            <mxPoint x="1110" y="270" as="sourcePoint" />
            <mxPoint x="1160" y="220" as="targetPoint" />
          </mxGeometry>
        </mxCell>
        <mxCell id="kFy7uXsL30mzQ4tsva0F-34" value="" style="endArrow=classic;html=1;exitX=0.005;exitY=0.049;exitDx=0;exitDy=0;entryX=1;entryY=1;entryDx=0;entryDy=0;exitPerimeter=0;labelBackgroundColor=#F1FAEE;strokeColor=#457B9D;fontColor=#1D3557;" edge="1" parent="1" source="kFy7uXsL30mzQ4tsva0F-3" target="kFy7uXsL30mzQ4tsva0F-14">
          <mxGeometry width="50" height="50" relative="1" as="geometry">
            <mxPoint x="950" y="200" as="sourcePoint" />
            <mxPoint x="1000" y="150" as="targetPoint" />
          </mxGeometry>
        </mxCell>
        <mxCell id="kFy7uXsL30mzQ4tsva0F-35" value="" style="endArrow=classic;html=1;exitX=0.04;exitY=0.993;exitDx=0;exitDy=0;exitPerimeter=0;entryX=1;entryY=0;entryDx=0;entryDy=0;labelBackgroundColor=#F1FAEE;strokeColor=#457B9D;fontColor=#1D3557;" edge="1" parent="1" source="kFy7uXsL30mzQ4tsva0F-3" target="kFy7uXsL30mzQ4tsva0F-18">
          <mxGeometry width="50" height="50" relative="1" as="geometry">
            <mxPoint x="950" y="290" as="sourcePoint" />
            <mxPoint x="970" y="260" as="targetPoint" />
          </mxGeometry>
        </mxCell>
        <mxCell id="kFy7uXsL30mzQ4tsva0F-36" value="ID" style="rounded=1;whiteSpace=wrap;html=1;fillColor=#A8DADC;strokeColor=#457B9D;fontColor=#1D3557;" vertex="1" parent="1">
          <mxGeometry x="230" y="100" width="120" height="60" as="geometry" />
        </mxCell>
        <mxCell id="kFy7uXsL30mzQ4tsva0F-37" value="ClassId" style="rounded=1;whiteSpace=wrap;html=1;fillColor=#A8DADC;strokeColor=#457B9D;fontColor=#1D3557;" vertex="1" parent="1">
          <mxGeometry x="380" y="20" width="120" height="60" as="geometry" />
        </mxCell>
        <mxCell id="kFy7uXsL30mzQ4tsva0F-38" value="NoticeMsg" style="rounded=1;whiteSpace=wrap;html=1;fillColor=#A8DADC;strokeColor=#457B9D;fontColor=#1D3557;" vertex="1" parent="1">
          <mxGeometry x="520" y="20" width="120" height="60" as="geometry" />
        </mxCell>
        <mxCell id="kFy7uXsL30mzQ4tsva0F-39" value="NoticeTitle" style="rounded=1;whiteSpace=wrap;html=1;fillColor=#A8DADC;strokeColor=#457B9D;fontColor=#1D3557;" vertex="1" parent="1">
          <mxGeometry x="240" y="20" width="120" height="60" as="geometry" />
        </mxCell>
        <mxCell id="kFy7uXsL30mzQ4tsva0F-40" value="CreationDate" style="rounded=1;whiteSpace=wrap;html=1;fillColor=#A8DADC;strokeColor=#457B9D;fontColor=#1D3557;" vertex="1" parent="1">
          <mxGeometry x="530" y="100" width="120" height="60" as="geometry" />
        </mxCell>
        <mxCell id="kFy7uXsL30mzQ4tsva0F-43" value="" style="endArrow=classic;html=1;entryX=1;entryY=1;entryDx=0;entryDy=0;exitX=0.025;exitY=0.028;exitDx=0;exitDy=0;exitPerimeter=0;labelBackgroundColor=#F1FAEE;strokeColor=#457B9D;fontColor=#1D3557;" edge="1" parent="1" source="kFy7uXsL30mzQ4tsva0F-2" target="kFy7uXsL30mzQ4tsva0F-36">
          <mxGeometry width="50" height="50" relative="1" as="geometry">
            <mxPoint x="330" y="190" as="sourcePoint" />
            <mxPoint x="380" y="140" as="targetPoint" />
          </mxGeometry>
        </mxCell>
        <mxCell id="kFy7uXsL30mzQ4tsva0F-44" value="" style="endArrow=classic;html=1;entryX=0;entryY=1;entryDx=0;entryDy=0;exitX=1;exitY=0.25;exitDx=0;exitDy=0;labelBackgroundColor=#F1FAEE;strokeColor=#457B9D;fontColor=#1D3557;" edge="1" parent="1" source="kFy7uXsL30mzQ4tsva0F-2" target="kFy7uXsL30mzQ4tsva0F-40">
          <mxGeometry width="50" height="50" relative="1" as="geometry">
            <mxPoint x="490" y="180" as="sourcePoint" />
            <mxPoint x="670" y="-50" as="targetPoint" />
          </mxGeometry>
        </mxCell>
        <mxCell id="kFy7uXsL30mzQ4tsva0F-45" value="" style="endArrow=classic;html=1;entryX=1;entryY=1;entryDx=0;entryDy=0;exitX=0.201;exitY=-0.036;exitDx=0;exitDy=0;exitPerimeter=0;labelBackgroundColor=#F1FAEE;strokeColor=#457B9D;fontColor=#1D3557;" edge="1" parent="1" source="kFy7uXsL30mzQ4tsva0F-2" target="kFy7uXsL30mzQ4tsva0F-39">
          <mxGeometry width="50" height="50" relative="1" as="geometry">
            <mxPoint x="390" y="150" as="sourcePoint" />
            <mxPoint x="440" y="100" as="targetPoint" />
          </mxGeometry>
        </mxCell>
        <mxCell id="kFy7uXsL30mzQ4tsva0F-46" value="" style="endArrow=classic;html=1;exitX=0.803;exitY=-0.015;exitDx=0;exitDy=0;exitPerimeter=0;entryX=0.029;entryY=1.035;entryDx=0;entryDy=0;entryPerimeter=0;labelBackgroundColor=#F1FAEE;strokeColor=#457B9D;fontColor=#1D3557;" edge="1" parent="1" source="kFy7uXsL30mzQ4tsva0F-2" target="kFy7uXsL30mzQ4tsva0F-38">
          <mxGeometry width="50" height="50" relative="1" as="geometry">
            <mxPoint x="450" y="160" as="sourcePoint" />
            <mxPoint x="500" y="110" as="targetPoint" />
          </mxGeometry>
        </mxCell>
        <mxCell id="kFy7uXsL30mzQ4tsva0F-47" value="ID" style="rounded=1;whiteSpace=wrap;html=1;strokeColor=#457B9D;fontColor=#1D3557;fillColor=#A8DADC;" vertex="1" parent="1">
          <mxGeometry x="-10" y="100" width="120" height="60" as="geometry" />
        </mxCell>
        <mxCell id="kFy7uXsL30mzQ4tsva0F-48" value="TeacherName" style="rounded=1;whiteSpace=wrap;html=1;strokeColor=#457B9D;fontColor=#1D3557;fillColor=#A8DADC;" vertex="1" parent="1">
          <mxGeometry x="-50" y="20" width="120" height="60" as="geometry" />
        </mxCell>
        <mxCell id="kFy7uXsL30mzQ4tsva0F-49" value="TeacherEmail" style="rounded=1;whiteSpace=wrap;html=1;strokeColor=#457B9D;fontColor=#1D3557;fillColor=#A8DADC;" vertex="1" parent="1">
          <mxGeometry x="-190" y="20" width="120" height="60" as="geometry" />
        </mxCell>
        <mxCell id="kFy7uXsL30mzQ4tsva0F-50" value="Gender" style="rounded=1;whiteSpace=wrap;html=1;strokeColor=#457B9D;fontColor=#1D3557;fillColor=#A8DADC;" vertex="1" parent="1">
          <mxGeometry x="-330" y="20" width="120" height="60" as="geometry" />
        </mxCell>
        <mxCell id="kFy7uXsL30mzQ4tsva0F-51" value="DOB" style="rounded=1;whiteSpace=wrap;html=1;strokeColor=#457B9D;fontColor=#1D3557;fillColor=#A8DADC;" vertex="1" parent="1">
          <mxGeometry x="-485" y="20" width="120" height="60" as="geometry" />
        </mxCell>
        <mxCell id="kFy7uXsL30mzQ4tsva0F-52" value="StuID" style="rounded=1;whiteSpace=wrap;html=1;strokeColor=#457B9D;fontColor=#1D3557;fillColor=#A8DADC;" vertex="1" parent="1">
          <mxGeometry x="-485" y="110" width="120" height="60" as="geometry" />
        </mxCell>
        <mxCell id="kFy7uXsL30mzQ4tsva0F-53" value="ContactNumber" style="rounded=1;whiteSpace=wrap;html=1;strokeColor=#457B9D;fontColor=#1D3557;fillColor=#A8DADC;" vertex="1" parent="1">
          <mxGeometry x="-485" y="210" width="120" height="60" as="geometry" />
        </mxCell>
        <mxCell id="kFy7uXsL30mzQ4tsva0F-54" value="Address" style="rounded=1;whiteSpace=wrap;html=1;strokeColor=#457B9D;fontColor=#1D3557;fillColor=#A8DADC;" vertex="1" parent="1">
          <mxGeometry x="-485" y="300" width="120" height="60" as="geometry" />
        </mxCell>
        <mxCell id="kFy7uXsL30mzQ4tsva0F-55" value="UserName" style="rounded=1;whiteSpace=wrap;html=1;strokeColor=#457B9D;fontColor=#1D3557;fillColor=#A8DADC;" vertex="1" parent="1">
          <mxGeometry x="-330" y="300" width="120" height="60" as="geometry" />
        </mxCell>
        <mxCell id="kFy7uXsL30mzQ4tsva0F-56" value="Password" style="rounded=1;whiteSpace=wrap;html=1;strokeColor=#457B9D;fontColor=#1D3557;fillColor=#A8DADC;" vertex="1" parent="1">
          <mxGeometry x="-170" y="300" width="120" height="60" as="geometry" />
        </mxCell>
        <mxCell id="kFy7uXsL30mzQ4tsva0F-57" value="Image" style="rounded=1;whiteSpace=wrap;html=1;strokeColor=#457B9D;fontColor=#1D3557;fillColor=#A8DADC;" vertex="1" parent="1">
          <mxGeometry x="-10" y="300" width="120" height="60" as="geometry" />
        </mxCell>
        <mxCell id="kFy7uXsL30mzQ4tsva0F-58" value="DateOfAdmission" style="rounded=1;whiteSpace=wrap;html=1;strokeColor=#457B9D;fontColor=#1D3557;fillColor=#A8DADC;" vertex="1" parent="1">
          <mxGeometry x="-10" y="230" width="120" height="60" as="geometry" />
        </mxCell>
        <mxCell id="kFy7uXsL30mzQ4tsva0F-63" value="" style="endArrow=classic;html=1;rounded=0;strokeColor=#457B9D;fontColor=#1D3557;fillColor=#A8DADC;exitX=0.25;exitY=0;exitDx=0;exitDy=0;entryX=0.815;entryY=1.003;entryDx=0;entryDy=0;entryPerimeter=0;" edge="1" parent="1" source="kFy7uXsL30mzQ4tsva0F-1" target="kFy7uXsL30mzQ4tsva0F-50">
          <mxGeometry width="50" height="50" relative="1" as="geometry">
            <mxPoint x="-320" y="250" as="sourcePoint" />
            <mxPoint x="-270" y="200" as="targetPoint" />
          </mxGeometry>
        </mxCell>
        <mxCell id="kFy7uXsL30mzQ4tsva0F-64" value="" style="endArrow=classic;html=1;rounded=0;strokeColor=#457B9D;fontColor=#1D3557;fillColor=#A8DADC;exitX=0.083;exitY=0;exitDx=0;exitDy=0;exitPerimeter=0;" edge="1" parent="1" source="kFy7uXsL30mzQ4tsva0F-1" target="kFy7uXsL30mzQ4tsva0F-51">
          <mxGeometry width="50" height="50" relative="1" as="geometry">
            <mxPoint x="-330" y="220" as="sourcePoint" />
            <mxPoint x="-280" y="170" as="targetPoint" />
          </mxGeometry>
        </mxCell>
        <mxCell id="kFy7uXsL30mzQ4tsva0F-65" value="" style="endArrow=classic;html=1;rounded=0;strokeColor=#457B9D;fontColor=#1D3557;fillColor=#A8DADC;entryX=0.25;entryY=1;entryDx=0;entryDy=0;exitX=0.917;exitY=0;exitDx=0;exitDy=0;exitPerimeter=0;" edge="1" parent="1" source="kFy7uXsL30mzQ4tsva0F-1" target="kFy7uXsL30mzQ4tsva0F-48">
          <mxGeometry width="50" height="50" relative="1" as="geometry">
            <mxPoint x="-350" y="230" as="sourcePoint" />
            <mxPoint x="-300" y="180" as="targetPoint" />
          </mxGeometry>
        </mxCell>
        <mxCell id="kFy7uXsL30mzQ4tsva0F-66" value="" style="endArrow=classic;html=1;rounded=0;strokeColor=#457B9D;fontColor=#1D3557;fillColor=#A8DADC;exitX=1;exitY=0.25;exitDx=0;exitDy=0;entryX=0;entryY=0.5;entryDx=0;entryDy=0;" edge="1" parent="1" source="kFy7uXsL30mzQ4tsva0F-1" target="kFy7uXsL30mzQ4tsva0F-47">
          <mxGeometry width="50" height="50" relative="1" as="geometry">
            <mxPoint x="-70" y="210" as="sourcePoint" />
            <mxPoint x="-20" y="160" as="targetPoint" />
          </mxGeometry>
        </mxCell>
        <mxCell id="kFy7uXsL30mzQ4tsva0F-67" value="" style="endArrow=classic;html=1;rounded=0;strokeColor=#457B9D;fontColor=#1D3557;fillColor=#A8DADC;entryX=1;entryY=0.5;entryDx=0;entryDy=0;exitX=0;exitY=0.25;exitDx=0;exitDy=0;" edge="1" parent="1" source="kFy7uXsL30mzQ4tsva0F-1" target="kFy7uXsL30mzQ4tsva0F-52">
          <mxGeometry width="50" height="50" relative="1" as="geometry">
            <mxPoint x="-320" y="230" as="sourcePoint" />
            <mxPoint x="-270" y="180" as="targetPoint" />
          </mxGeometry>
        </mxCell>
        <mxCell id="kFy7uXsL30mzQ4tsva0F-68" value="" style="endArrow=classic;html=1;rounded=0;strokeColor=#457B9D;fontColor=#1D3557;fillColor=#A8DADC;entryX=1;entryY=0.5;entryDx=0;entryDy=0;exitX=0;exitY=0.5;exitDx=0;exitDy=0;" edge="1" parent="1" source="kFy7uXsL30mzQ4tsva0F-1" target="kFy7uXsL30mzQ4tsva0F-53">
          <mxGeometry width="50" height="50" relative="1" as="geometry">
            <mxPoint x="-330" y="250" as="sourcePoint" />
            <mxPoint x="-280" y="200" as="targetPoint" />
          </mxGeometry>
        </mxCell>
        <mxCell id="kFy7uXsL30mzQ4tsva0F-69" value="" style="endArrow=classic;html=1;rounded=0;strokeColor=#457B9D;fontColor=#1D3557;fillColor=#A8DADC;exitX=0;exitY=0.833;exitDx=0;exitDy=0;exitPerimeter=0;" edge="1" parent="1" source="kFy7uXsL30mzQ4tsva0F-1" target="kFy7uXsL30mzQ4tsva0F-54">
          <mxGeometry width="50" height="50" relative="1" as="geometry">
            <mxPoint x="-240" y="230" as="sourcePoint" />
            <mxPoint x="-250" y="240" as="targetPoint" />
          </mxGeometry>
        </mxCell>
        <mxCell id="kFy7uXsL30mzQ4tsva0F-71" value="" style="endArrow=classic;html=1;rounded=0;strokeColor=#457B9D;fontColor=#1D3557;fillColor=#A8DADC;entryX=0.618;entryY=-0.003;entryDx=0;entryDy=0;entryPerimeter=0;exitX=0.348;exitY=1.01;exitDx=0;exitDy=0;exitPerimeter=0;" edge="1" parent="1" source="kFy7uXsL30mzQ4tsva0F-1" target="kFy7uXsL30mzQ4tsva0F-55">
          <mxGeometry width="50" height="50" relative="1" as="geometry">
            <mxPoint x="-240" y="290" as="sourcePoint" />
            <mxPoint x="-190" y="240" as="targetPoint" />
          </mxGeometry>
        </mxCell>
        <mxCell id="kFy7uXsL30mzQ4tsva0F-72" value="" style="endArrow=classic;html=1;rounded=0;strokeColor=#457B9D;fontColor=#1D3557;fillColor=#A8DADC;entryX=0;entryY=0.5;entryDx=0;entryDy=0;" edge="1" parent="1" source="kFy7uXsL30mzQ4tsva0F-1" target="kFy7uXsL30mzQ4tsva0F-58">
          <mxGeometry width="50" height="50" relative="1" as="geometry">
            <mxPoint x="-90" y="270" as="sourcePoint" />
            <mxPoint x="-40" y="220" as="targetPoint" />
          </mxGeometry>
        </mxCell>
        <mxCell id="kFy7uXsL30mzQ4tsva0F-73" value="" style="endArrow=classic;html=1;rounded=0;strokeColor=#457B9D;fontColor=#1D3557;fillColor=#A8DADC;entryX=0;entryY=0;entryDx=0;entryDy=0;exitX=0.908;exitY=1.003;exitDx=0;exitDy=0;exitPerimeter=0;" edge="1" parent="1" source="kFy7uXsL30mzQ4tsva0F-1" target="kFy7uXsL30mzQ4tsva0F-57">
          <mxGeometry width="50" height="50" relative="1" as="geometry">
            <mxPoint x="-130" y="300" as="sourcePoint" />
            <mxPoint x="-80" y="250" as="targetPoint" />
          </mxGeometry>
        </mxCell>
      </root>
    </mxGraphModel>
  </diagram>
</mxfile>
